<?xml version="1.0" encoding="utf-8"?>
<!-- Generator: Adobe Illustrator 24.0.0, SVG Export Plug-In . SVG Version: 6.00 Build 0)  -->
<svg version="1.1" id="Layer_1" xmlns="http://www.w3.org/2000/svg" xmlns:xlink="http://www.w3.org/1999/xlink" x="0px" y="0px"
	 viewBox="0 0 40 30" style="enable-background:new 0 0 40 30;" xml:space="preserve">
<style type="text/css">
	.st0{fill:#BA000C;}
	.st1{fill:#BA000C;stroke:#FFFFFF;stroke-width:0.51;stroke-miterlimit:10;}
	.st2{fill:#333333;}
	.st3{fill:#333333;stroke:#FFFFFF;stroke-width:0.51;stroke-miterlimit:10;}
	.st4{fill:#333333;stroke:#FFFFFF;stroke-width:0.5;stroke-miterlimit:10;}
	.st5{fill:#BA000C;stroke:#FFFFFF;stroke-width:0.5;stroke-miterlimit:10;}
	.st6{fill:none;stroke:#FFFFFF;stroke-width:0.5;stroke-miterlimit:10;}
	.st7{fill:#FFFFFF;stroke:#BA000C;stroke-width:0.5;stroke-miterlimit:10;}
	.st8{fill:#FFFFFF;stroke:#333333;stroke-miterlimit:10;}
	.st9{fill:#FFFFFF;stroke:#333333;stroke-width:0.5;stroke-miterlimit:10;}
</style>
<g>
	<polygon class="st0" points="8.57,4.71 1.43,4.71 0,10 10,10 	"/>
	<ellipse class="st0" cx="4.89" cy="1.76" rx="2.14" ry="1.76"/>
	<polygon class="st1" points="4.76,8.24 6.19,4.71 3.33,4.71 	"/>
</g>
<g>
	<polygon class="st2" points="8.57,14.71 1.43,14.71 0,20 10,20 	"/>
	<ellipse class="st2" cx="4.89" cy="11.76" rx="2.14" ry="1.76"/>
	<polygon class="st3" points="4.76,18.24 6.19,14.71 3.33,14.71 	"/>
</g>
<g>
	<polygon class="st2" points="17.86,8.44 17.86,5.32 15,3.77 12.14,5.32 12.14,8.44 15,10 	"/>
	<polygon class="st4" points="20,2.99 14.87,0 10,2.99 14.87,5.93 	"/>
</g>
<g>
	<polygon class="st0" points="37.86,8.44 37.86,5.32 35,3.77 32.14,5.32 32.14,8.44 35,10 	"/>
	<polygon class="st5" points="40,2.99 34.87,0 30,2.99 34.87,5.93 	"/>
</g>
<g>
	<ellipse transform="matrix(0.8388 -0.5445 0.5445 0.8388 1.527 14.3105)" class="st2" cx="24.93" cy="4.58" rx="5.36" ry="3.71"/>
	<path class="st6" d="M21.1,10c-0.17-0.97-0.18-2.24,0.69-3.08c0.99-0.95,2.17-0.44,3.26-1.37c1.39-1.18,0.37-2.77,1.68-4.19
		C27.42,0.63,28.51,0.17,30,0"/>
</g>
<g>
	
		<ellipse transform="matrix(0.8176 -0.5757 0.5757 0.8176 -1.9974 22.8476)" class="st0" cx="35.07" cy="14.58" rx="5.25" ry="3.68"/>
	<path class="st6" d="M31.35,20c-0.16-0.97-0.18-2.24,0.67-3.08c0.97-0.95,2.11-0.44,3.17-1.37c1.35-1.18,0.36-2.77,1.64-4.19
		c0.66-0.74,1.72-1.19,3.17-1.37"/>
</g>
<g>
	<rect x="10" y="12.44" class="st5" width="5" height="3.78"/>
	<rect x="15" y="12.44" class="st5" width="5" height="3.78"/>
	<rect x="10" y="16.22" class="st5" width="5" height="3.78"/>
	<rect x="15" y="16.22" class="st5" width="5" height="3.78"/>
	<path class="st7" d="M13.96,13.26l-2.45-1.37c-0.16-0.09-0.22-0.3-0.11-0.41l1.41-1.42c0.11-0.11,0.32-0.05,0.41,0.11l1.36,2.47
		L13.96,13.26z"/>
	<path class="st7" d="M15.42,12.64l1.36-2.47c0.09-0.16,0.3-0.22,0.41-0.11l1.41,1.42c0.11,0.11,0.05,0.32-0.11,0.41l-2.45,1.37
		L15.42,12.64z"/>
</g>
<g>
	<path class="st2" d="M29.39,13.75c0,2.92-4.5,6.25-4.5,6.25s-4.5-3.33-4.5-6.25c0-2.07,2.01-3.75,4.5-3.75S29.39,11.68,29.39,13.75
		z"/>
	<polygon class="st8" points="24.89,16.25 27.49,12.5 22.29,12.5 	"/>
</g>
<g>
	<polygon class="st2" points="3.78,28.27 1.21,26.51 7.42,20 10,21.77 	"/>
	<polygon class="st2" points="0,30 3.19,28.6 0.96,27.07 	"/>
</g>
<g>
	<rect x="12.5" y="21" class="st9" width="5" height="2.14"/>
	<path class="st2" d="M18.93,30h-7.85C10.48,30,10,29.52,10,28.93v-5.47c0-0.59,0.48-1.07,1.07-1.07h7.85
		c0.59,0,1.07,0.48,1.07,1.07v5.47C20,29.52,19.52,30,18.93,30z"/>
	<line class="st6" x1="10" y1="26.19" x2="20" y2="26.19"/>
	<polygon class="st4" points="15.63,27.71 14.38,27.71 13.13,26.19 16.88,26.19 	"/>
</g>
<g>
	<rect x="20" y="23" class="st2" width="1.74" height="4.67"/>
	<polygon class="st2" points="30,30 22.5,27.67 22.5,23 30,20.67 	"/>
</g>
<polygon class="st0" points="35,20 36.55,23.29 40,23.82 37.5,26.38 38.09,30 35,28.29 31.91,30 32.5,26.38 30,23.82 33.45,23.29 
	"/>
</svg>
